<?xml version="1.0" standalone="no"?>
<!DOCTYPE svg PUBLIC "-//W3C//DTD SVG 20010904//EN"
 "http://www.w3.org/TR/2001/REC-SVG-20010904/DTD/svg10.dtd">
<svg version="1.0" xmlns="http://www.w3.org/2000/svg"
 width="700.000000pt" height="700.000000pt" viewBox="0 0 700.000000 700.000000"
 preserveAspectRatio="xMidYMid meet">
<metadata>
Created by potrace 1.14, written by Peter Selinger 2001-2017
</metadata>
<g transform="translate(0.000000,700.000000) scale(0.100000,-0.100000)"
fill="#000000" stroke="none">
<path d="M3245 6383 c-289 -25 -663 -123 -933 -246 -897 -406 -1524 -1234
-1673 -2210 -27 -172 -36 -508 -20 -683 132 -1403 1222 -2493 2625 -2625 157
-14 508 -7 652 15 978 146 1784 734 2209 1611 178 367 285 812 285 1183 0 107
-1 114 -25 137 -33 34 -96 35 -129 2 -22 -22 -24 -36 -31 -158 -31 -591 -207
-1086 -552 -1547 -106 -143 -359 -398 -500 -505 -400 -304 -849 -485 -1358
-548 -144 -18 -473 -15 -625 5 -494 66 -910 236 -1310 534 -148 110 -399 362
-512 512 -295 393 -467 814 -534 1310 -23 169 -23 491 0 660 67 497 245 930
543 1323 100 131 359 390 490 490 370 281 790 461 1239 531 163 26 402 39 469
27 127 -24 227 -98 282 -209 25 -51 28 -68 28 -157 0 -88 -3 -107 -27 -158
-37 -79 -120 -159 -195 -187 -44 -17 -92 -25 -206 -31 -304 -18 -527 -72 -772
-189 -215 -102 -382 -218 -543 -379 -964 -958 -688 -2575 539 -3161 973 -464
2142 -47 2608 930 117 246 191 559 191 813 0 237 -115 431 -314 527 -377 182
-806 -89 -806 -509 0 -131 -43 -285 -113 -411 -57 -102 -205 -250 -307 -307
-267 -149 -573 -149 -840 0 -102 57 -250 205 -307 307 -149 267 -149 573 0
840 57 102 205 250 307 307 123 69 280 113 403 113 40 0 54 5 78 29 47 48 38
116 -21 146 -26 13 -46 14 -135 5 -497 -51 -872 -424 -925 -924 -32 -297 82
-611 301 -827 215 -211 527 -321 820 -289 359 40 655 244 815 562 63 126 92
235 108 413 12 133 18 159 44 211 35 69 98 131 174 171 48 26 62 28 158 28 96
0 110 -2 163 -29 68 -35 135 -103 173 -177 25 -48 29 -67 32 -170 11 -311 -95
-665 -285 -959 -443 -682 -1304 -972 -2080 -699 -354 125 -679 381 -887 700
-302 465 -370 1040 -185 1566 125 356 380 678 702 888 202 131 446 226 677
265 36 6 137 15 225 20 241 14 340 52 460 174 82 83 118 145 145 252 35 136
20 264 -46 395 -69 139 -223 257 -372 288 -48 10 -280 13 -377 4z"/>
</g>
</svg>
